<svg viewBox="0 0 24 24" fill="none" width="32" height="32" xmlns="http://www.w3.org/2000/svg" xmlns:xlink="http://www.w3.org/1999/xlink">
    <style>
        :root, .palette0 {color: currentColor;
            --color0: #4d5ae5;
            --color1: #2e2f42;
            --color2: #f4f4fd;
        }
    </style>
    <g fill="var(--color2, #f4f4fd)" clip-path="url(#instagram_clip0_1050812_276)">
        <path d="M23.9765 7.0561c-0.0562-1.2753-0.2624-2.1519-0.5578-2.9116-0.3048-0.8064-0.7736-1.5283-1.3879-2.1285-0.6001-0.6095-1.3268-1.0831-2.1239-1.3831-0.764-0.2954-1.6361-0.5016-2.9114-0.5578C15.7108 0.0141 15.303 0 12.0445 0 8.7861 0 8.3782 0.0141 7.0982 0.0703 5.823 0.1266 4.9463 0.333 4.1868 0.6282 3.3803 0.9329 2.6584 1.4018 2.0582 2.016 1.4487 2.6162 0.9753 3.3429 0.6751 4.1399 0.3797 4.9042 0.1735 5.7761 0.1173 7.0513c-0.061 1.2847-0.0751 1.6926-0.0751 4.951 0 3.2585 0.0141 3.6663 0.0703 4.9463 0.0562 1.2752 0.2626 2.1519 0.558 2.9116 0.3048 0.8064 0.7782 1.5283 1.3877 2.1285 0.6001 0.6095 1.3268 1.0831 2.1239 1.3831 0.7642 0.2954 1.6362 0.5016 2.9116 0.5578 1.2798 0.0564 1.6878 0.0703 4.9462 0.0703 3.2585 0 3.6663-0.0139 4.9463-0.0703 1.2752-0.0562 2.1519-0.2624 2.9114-0.5578 1.6129-0.6236 2.8881-1.8989 3.5117-3.5116 0.2953-0.7642 0.5017-1.6364 0.5579-2.9116 0.0562-1.28 0.0703-1.6878 0.0703-4.9463 0-3.2584-48e-4-3.6663-0.061-4.9462zM21.8153 16.8549c-0.0517 1.1721-0.2486 1.805-0.4126 2.227-0.4033 1.0455-1.2331 1.8753-2.2787 2.2786-0.4219 0.1641-1.0595 0.361-2.227 0.4124-1.2659 0.0564-1.6455 0.0704-4.8477 0.0704-3.2022 0-3.5867-0.014-4.848-0.0704-1.1721-0.0514-1.805-0.2483-2.2269-0.4124-0.5204-0.1923-0.994-0.4971-1.3784-0.8956-0.3985-0.3891-0.7032-0.858-0.8955-1.3783-0.1641-0.4219-0.361-1.0596-0.4125-2.227-0.0564-1.2659-0.0703-1.6457-0.0703-4.8479 0-3.2022 0.0139-3.5867 0.0703-4.8478 0.0515-1.1721 0.2484-1.805 0.4125-2.227 0.1923-0.5205 0.497-0.9939 0.9003-1.3785 0.389-0.3985 0.8578-0.7032 1.3783-0.8953 0.422-0.1641 1.0597-0.361 2.227-0.4127 1.2659-0.0562 1.6457-0.0703 4.8477-0.0703 3.207 0 3.5867 0.0141 4.848 0.0703 1.1721 0.0517 1.805 0.2486 2.227 0.4127 0.5203 0.1921 0.9939 0.4968 1.3783 0.8953 0.3985 0.3892 0.7033 0.858 0.8956 1.3785 0.164 0.422 0.3609 1.0595 0.4126 2.227 0.0562 1.2659 0.0703 1.6456 0.0703 4.8478 0 3.2022-0.0141 3.5773-0.0703 4.8432z" />
        <path d="M12.0445 5.8369c-3.4036 0-6.1652 2.7614-6.1652 6.1653 0 3.4038 2.7616 6.1652 6.1652 6.1652 3.4039 0 6.1653-2.7614 6.1653-6.1652 0-3.4039-2.7614-6.1653-6.1653-6.1653zM12.0445 16.0014c-2.2081 0-3.9992-1.7909-3.9992-3.9992 0-2.2083 1.7911-3.9993 3.9992-3.9993 2.2084 0 3.9993 1.791 3.9993 3.9993 0 2.2083-1.7909 3.9992-3.9993 3.9992z" />
        <path d="M19.893 5.5934c0 0.7948-0.6444 1.4393-1.4395 1.4393-0.7948 0-1.4393-0.6445-1.4393-1.4393 0-0.795 0.6445-1.4394 1.4393-1.4394 0.7951 0 1.4395 0.6444 1.4395 1.4394z" />
    </g>
    <defs>
        <clipPath id="instagram_clip0_1050812_276">
            <rect fill="#fff" width="24" height="24" />
        </clipPath>
    </defs>
</svg>