<svg viewBox="0 0 24 24" fill="none" width="32" height="32" xmlns="http://www.w3.org/2000/svg" xmlns:xlink="http://www.w3.org/1999/xlink">
    <style>
        :root, .palette0 {color: currentColor;
            --color0: #4d5ae5;
            --color1: #2e2f42;
            --color2: #f4f4fd;
        }
    </style>
    <path fill="var(--color2, #f4f4fd)" d="M24 4.5585c-0.8925 0.3915-1.8435 0.651-2.835 0.777 1.02-0.609 1.7985-1.566 2.1645-2.7195-0.951 0.567-2.001 0.9675-3.12 1.191-0.903-0.9615-2.19-1.557-3.594-1.557-2.724 0-4.917 2.211-4.917 4.9215 0 0.39 0.033 0.765 0.114 1.122C7.722 8.094 4.1025 6.1335 1.671 3.147 1.2465 3.8835 0.9975 4.7265 0.9975 5.634c0 1.704 0.8775 3.2145 2.1855 4.089C2.3925 9.708 1.617 9.4785 0.96 9.117c0 0.015 0 0.0345 0 0.054 0 2.391 1.7055 4.377 3.942 4.8345-0.4005 0.1095-0.837 0.162-1.29 0.162-0.315 0-0.633-0.018-0.9315-0.084 0.6375 1.9485 2.4465 3.381 4.5975 3.4275-1.674 1.3095-3.7995 2.0985-6.1005 2.0985-0.4035 0-0.7905-0.018-1.1775-0.0675 2.1795 1.4055 4.7625 2.208 7.548 2.208 9.054 0 14.004-7.5 14.004-14.001 0-0.2175-75e-4-0.4275-0.018-0.636C22.5105 6.42 23.331 5.5545 24 4.5585z" />
</svg>